<?xml version="1.0" encoding="UTF-8"?>
<svg xmlns="http://www.w3.org/2000/svg" xmlns:xlink="http://www.w3.org/1999/xlink" width="68.4668" height="35.6858" viewBox="0 0 68.4668 35.6858">
<defs>
<clipPath id="clip-0">
<path clip-rule="nonzero" d="M 0 3 L 39 3 L 39 35.6875 L 0 35.6875 Z M 0 3 "/>
</clipPath>
<clipPath id="clip-1">
<path clip-rule="nonzero" d="M 2 0 L 36 0 L 36 35.6875 L 2 35.6875 Z M 2 0 "/>
</clipPath>
<clipPath id="clip-2">
<path clip-rule="nonzero" d="M 21 15 L 44 15 L 44 35.6875 L 21 35.6875 Z M 21 15 "/>
</clipPath>
<clipPath id="clip-3">
<path clip-rule="nonzero" d="M 35 15 L 57 15 L 57 35.6875 L 35 35.6875 Z M 35 15 "/>
</clipPath>
<clipPath id="clip-4">
<path clip-rule="nonzero" d="M 47 15 L 68.46875 15 L 68.46875 35.6875 L 47 35.6875 Z M 47 15 "/>
</clipPath>
<clipPath id="clip-5">
<path clip-rule="nonzero" d="M 43 15 L 60 15 L 60 35.6875 L 43 35.6875 Z M 43 15 "/>
</clipPath>
</defs>
<path fill-rule="evenodd" fill="rgb(89.019775%, 0%, 5.882263%)" fill-opacity="1" stroke-width="0.216" stroke-linecap="butt" stroke-linejoin="miter" stroke="rgb(89.019775%, 0%, 5.882263%)" stroke-opacity="1" stroke-miterlimit="22.925586" d="M 0.109375 33.576425 L 66.359375 33.576425 L 66.359375 0.107675 L 0.109375 0.107675 Z M 0.109375 33.576425 " transform="matrix(1, 0, 0, -1, 1, 34.6858)"/>
<path fill-rule="evenodd" fill="rgb(100%, 100%, 100%)" fill-opacity="1" d="M 28.398438 10.132812 C 28.589844 10.164062 28.773438 10.890625 29.140625 11.269531 C 29.410156 11.539062 29.746094 11.523438 29.925781 11.863281 C 29.992188 11.988281 29.96875 12.203125 30.046875 12.410156 C 30.199219 12.824219 30.726562 12.859375 30.726562 13.3125 C 30.726562 13.796875 30.285156 13.890625 29.902344 14.234375 C 29.601562 14.511719 29.574219 14.703125 29.210938 14.839844 C 28.902344 14.949219 28.441406 14.589844 28.027344 14.71875 C 27.6875 14.824219 27.359375 14.898438 27.28125 15.261719 C 27.214844 15.597656 27.289062 16.113281 27.699219 16.054688 C 27.839844 16.039062 28.441406 15.828125 29.183594 15.910156 C 30.078125 16.015625 31.097656 16.316406 31.199219 17.351562 C 31.253906 17.925781 30.566406 18.609375 29.898438 18.46875 C 29.4375 18.375 29.65625 17.8125 29.40625 17.539062 C 29.078125 17.191406 27.214844 18.761719 25.484375 18.761719 C 24.753906 18.761719 24.214844 18.570312 23.675781 17.988281 C 23.625 17.941406 23.5625 17.847656 23.484375 17.839844 C 23.410156 17.847656 23.285156 17.921875 23.242188 17.953125 C 21.847656 19.113281 20.792969 21.441406 15.671875 21.46875 C 14.949219 21.472656 14.128906 21.832031 13.457031 22.464844 C 12.859375 23.035156 12.511719 23.925781 12.171875 24.832031 C 11.660156 26.1875 10.738281 27.507812 9.347656 28.972656 C 9.269531 29.050781 8.125 29.976562 8.03125 30.042969 C 8.019531 30.054688 7.933594 30.261719 7.960938 30.378906 C 7.996094 31.257812 8.121094 33.820312 6.277344 33.933594 C 5.828125 33.957031 5.945312 33.628906 5.945312 33.40625 C 5.945312 32.957031 6.023438 32.515625 5.796875 32.058594 C 5.488281 31.433594 6.457031 31.144531 6.429688 29.785156 C 6.40625 28.773438 7.230469 28.945312 7.644531 28.175781 C 7.886719 27.730469 8.097656 27.492188 8.082031 26.945312 C 7.988281 23.871094 8.714844 21.851562 9.074219 21.355469 C 9.359375 20.980469 9.589844 20.832031 9.332031 20.660156 C 7.796875 19.609375 7.449219 18.628906 7.449219 18.628906 C 6.628906 16.640625 5.894531 14.820312 4.882812 14.019531 C 4.675781 13.855469 4.152344 13.449219 3.832031 13.292969 C 2.886719 12.828125 2.386719 12.550781 2.113281 12.273438 C 1.679688 11.835938 1.335938 10.917969 1.753906 10.363281 C 2.269531 9.679688 3.167969 10.222656 3.5625 10.464844 C 6.386719 12.203125 6.804688 15.269531 7.78125 17.027344 C 8.566406 18.433594 9.835938 19.464844 10.96875 19.550781 C 11.820312 19.617188 12.738281 19.4375 13.652344 19.023438 C 15.871094 18.011719 17.089844 16.710938 17.375 16.480469 C 17.972656 16.003906 22.605469 11.292969 26.359375 11.097656 C 26.359375 11.097656 26.828125 10.132812 26.941406 10.117188 C 27.21875 10.082031 27.5 10.695312 27.699219 10.765625 C 27.890625 10.832031 28.207031 10.101562 28.398438 10.132812 Z M 28.398438 10.132812 "/>
<g clip-path="url(#clip-0)">
<path fill="none" stroke-width="0.216" stroke-linecap="butt" stroke-linejoin="miter" stroke="rgb(100%, 100%, 100%)" stroke-opacity="1" stroke-miterlimit="22.925586" d="M 27.398438 24.552988 C 27.589844 24.521738 27.773438 23.795175 28.140625 23.416269 C 28.410156 23.146738 28.746094 23.162363 28.925781 22.822519 C 28.992188 22.697519 28.96875 22.482675 29.046875 22.275644 C 29.199219 21.861581 29.726562 21.826425 29.726562 21.3733 C 29.726562 20.888925 29.285156 20.795175 28.902344 20.451425 C 28.601562 20.174081 28.574219 19.982675 28.210938 19.845956 C 27.902344 19.736581 27.441406 20.095956 27.027344 19.96705 C 26.6875 19.861581 26.359375 19.787363 26.28125 19.424081 C 26.214844 19.088144 26.289062 18.572519 26.699219 18.631113 C 26.839844 18.646738 27.441406 18.857675 28.183594 18.775644 C 29.078125 18.670175 30.097656 18.369394 30.199219 17.334238 C 30.253906 16.760019 29.566406 16.076425 28.898438 16.21705 C 28.4375 16.3108 28.65625 16.8733 28.40625 17.146738 C 28.078125 17.494394 26.214844 15.924081 24.484375 15.924081 C 23.753906 15.924081 23.214844 16.115488 22.675781 16.697519 C 22.625 16.744394 22.5625 16.838144 22.484375 16.845956 C 22.410156 16.838144 22.285156 16.763925 22.242188 16.732675 C 20.847656 15.572519 19.792969 13.244394 14.671875 13.21705 C 13.949219 13.213144 13.128906 12.853769 12.457031 12.220956 C 11.859375 11.650644 11.511719 10.760019 11.171875 9.853769 C 10.660156 8.4983 9.738281 7.177988 8.347656 5.713144 C 8.269531 5.635019 7.125 4.709238 7.03125 4.642831 C 7.019531 4.631113 6.933594 4.424081 6.960938 4.306894 C 6.996094 3.427988 7.121094 0.865488 5.277344 0.752206 C 4.828125 0.728769 4.945312 1.056894 4.945312 1.27955 C 4.945312 1.728769 5.023438 2.170175 4.796875 2.627206 C 4.488281 3.252206 5.457031 3.541269 5.429688 4.900644 C 5.40625 5.912363 6.230469 5.740488 6.644531 6.510019 C 6.886719 6.955331 7.097656 7.193613 7.082031 7.740488 C 6.988281 10.814706 7.714844 12.834238 8.074219 13.330331 C 8.359375 13.705331 8.589844 13.853769 8.332031 14.025644 C 6.796875 15.076425 6.449219 16.056894 6.449219 16.056894 C 5.628906 18.045175 4.894531 19.865488 3.882812 20.666269 C 3.675781 20.830331 3.152344 21.236581 2.832031 21.392831 C 1.886719 21.857675 1.386719 22.135019 1.113281 22.412363 C 0.679688 22.849863 0.335938 23.767831 0.753906 24.322519 C 1.269531 25.006113 2.167969 24.463144 2.5625 24.220956 C 5.386719 22.482675 5.804688 19.416269 6.78125 17.658456 C 7.566406 16.252206 8.835938 15.220956 9.96875 15.135019 C 10.820312 15.068613 11.738281 15.2483 12.652344 15.662363 C 14.871094 16.674081 16.089844 17.974863 16.375 18.205331 C 16.972656 18.681894 21.605469 23.392831 25.359375 23.588144 C 25.359375 23.588144 25.828125 24.552988 25.941406 24.568613 C 26.21875 24.603769 26.5 23.990488 26.699219 23.920175 C 26.890625 23.853769 27.207031 24.584238 27.398438 24.552988 Z M 27.398438 24.552988 " transform="matrix(1, 0, 0, -1, 1, 34.6858)"/>
</g>
<path fill-rule="evenodd" fill="rgb(100%, 100%, 100%)" fill-opacity="1" d="M 9.742188 19.363281 L 15.011719 1.832031 L 18.605469 1.832031 L 28.296875 31.546875 L 24.640625 31.550781 L 16.867188 5.777344 L 12.757812 19.351562 Z M 9.742188 19.363281 "/>
<g clip-path="url(#clip-1)">
<path fill="none" stroke-width="0.216" stroke-linecap="butt" stroke-linejoin="miter" stroke="rgb(100%, 100%, 100%)" stroke-opacity="1" stroke-miterlimit="22.925586" d="M 8.742188 15.322519 L 14.011719 32.853769 L 17.605469 32.853769 L 27.296875 3.138925 L 23.640625 3.135019 L 15.867188 28.908456 L 11.757812 15.334238 Z M 8.742188 15.322519 " transform="matrix(1, 0, 0, -1, 1, 34.6858)"/>
</g>
<path fill-rule="evenodd" fill="rgb(100%, 100%, 100%)" fill-opacity="1" d="M 28.078125 22.199219 L 36.65625 22.199219 L 36.65625 24.355469 L 33.5625 24.355469 L 33.5625 31.542969 L 31.375 31.542969 L 31.203125 24.386719 L 28.078125 24.371094 Z M 28.078125 22.199219 "/>
<g clip-path="url(#clip-2)">
<path fill="none" stroke-width="0.216" stroke-linecap="butt" stroke-linejoin="miter" stroke="rgb(100%, 100%, 100%)" stroke-opacity="1" stroke-miterlimit="22.925586" d="M 27.078125 12.486581 L 35.65625 12.486581 L 35.65625 10.330331 L 32.5625 10.330331 L 32.5625 3.142831 L 30.375 3.142831 L 30.203125 10.299081 L 27.078125 10.314706 Z M 27.078125 12.486581 " transform="matrix(1, 0, 0, -1, 1, 34.6858)"/>
</g>
<path fill-rule="evenodd" fill="rgb(100%, 100%, 100%)" fill-opacity="1" stroke-width="0.216" stroke-linecap="butt" stroke-linejoin="miter" stroke="rgb(100%, 100%, 100%)" stroke-opacity="1" stroke-miterlimit="22.925586" d="M 37.082031 12.486581 L 37.082031 3.142831 L 39.285156 3.142831 L 39.285156 12.486581 Z M 37.082031 12.486581 " transform="matrix(1, 0, 0, -1, 1, 34.6858)"/>
<path fill-rule="evenodd" fill="rgb(100%, 100%, 100%)" fill-opacity="1" d="M 42.160156 22.199219 L 42.160156 31.527344 L 49.425781 31.542969 L 49.425781 29.386719 L 44.332031 29.386719 L 44.332031 22.203125 Z M 42.160156 22.199219 "/>
<g clip-path="url(#clip-3)">
<path fill="none" stroke-width="0.216" stroke-linecap="butt" stroke-linejoin="miter" stroke="rgb(100%, 100%, 100%)" stroke-opacity="1" stroke-miterlimit="22.925586" d="M 41.160156 12.486581 L 41.160156 3.158456 L 48.425781 3.142831 L 48.425781 5.299081 L 43.332031 5.299081 L 43.332031 12.482675 Z M 41.160156 12.486581 " transform="matrix(1, 0, 0, -1, 1, 34.6858)"/>
</g>
<path fill-rule="evenodd" fill="rgb(100%, 100%, 100%)" fill-opacity="1" d="M 54.660156 31.542969 L 56.613281 31.542969 L 56.613281 24.824219 L 59.90625 31.542969 L 61.421875 31.542969 L 64.53125 24.824219 L 64.53125 31.542969 L 66.652344 31.542969 L 66.652344 22.210938 L 63.261719 22.210938 L 60.65625 27.820312 L 58.027344 22.199219 L 54.636719 22.199219 Z M 54.660156 31.542969 "/>
<g clip-path="url(#clip-4)">
<path fill="none" stroke-width="0.216" stroke-linecap="butt" stroke-linejoin="miter" stroke="rgb(100%, 100%, 100%)" stroke-opacity="1" stroke-miterlimit="22.925586" d="M 53.660156 3.142831 L 55.613281 3.142831 L 55.613281 9.861581 L 58.90625 3.142831 L 60.421875 3.142831 L 63.53125 9.861581 L 63.53125 3.142831 L 65.652344 3.142831 L 65.652344 12.474863 L 62.261719 12.474863 L 59.65625 6.865488 L 57.027344 12.486581 L 53.636719 12.486581 Z M 53.660156 3.142831 " transform="matrix(1, 0, 0, -1, 1, 34.6858)"/>
</g>
<path fill-rule="evenodd" fill="rgb(100%, 100%, 100%)" fill-opacity="1" d="M 50.644531 22.203125 L 50.644531 31.546875 L 52.847656 31.546875 L 52.847656 22.199219 Z M 50.644531 22.203125 "/>
<g clip-path="url(#clip-5)">
<path fill="none" stroke-width="0.216" stroke-linecap="butt" stroke-linejoin="miter" stroke="rgb(100%, 100%, 100%)" stroke-opacity="1" stroke-miterlimit="22.925586" d="M 49.644531 12.482675 L 49.644531 3.138925 L 51.847656 3.138925 L 51.847656 12.486581 Z M 49.644531 12.482675 " transform="matrix(1, 0, 0, -1, 1, 34.6858)"/>
</g>
</svg>
